<svg id="Layer_1" data-name="Layer 1" xmlns="http://www.w3.org/2000/svg" viewBox="0 0 48 48"><path d="M15.78,38.34H9.42V19h6.36Zm-.1-23.49a3.94,3.94,0,0,1-5,1,3.31,3.31,0,0,1-1.24-4.51,3.39,3.39,0,0,1,.94-1.05,4,4,0,0,1,2.37-.67,3.3,3.3,0,0,1,3.07,1.74A3.22,3.22,0,0,1,15.68,14.85ZM39,38.32H32.6V37.7c0-3.51,0-7-.05-10.52a6.18,6.18,0,0,0-.15-1.05A3,3,0,0,0,29,23.63l-.11,0a3.5,3.5,0,0,0-3,3.26V38.3H19.4V19h6.42v2.62l.3-.36a6.16,6.16,0,0,1,5.18-2.74,6.73,6.73,0,0,1,6.6,3.53A8.87,8.87,0,0,1,39,26.2Z"/></svg>